<svg xmlns="http://www.w3.org/2000/svg" version="1.1" xmlns:xlink="http://www.w3.org/1999/xlink" xmlns:svgjs="http://svgjs.dev/svgjs" width="1000" height="1000" viewBox="0 0 1000 1000"><rect width="1000" height="1000" fill="#ffffff"></rect><g transform="matrix(0.7,0,0,0.7,150.2974433010595,162.8731983805668)"><svg viewBox="0 0 256 247" data-background-color="#ffffff" preserveAspectRatio="xMidYMid meet" height="964" width="1000" xmlns="http://www.w3.org/2000/svg" xmlns:xlink="http://www.w3.org/1999/xlink"><g id="tight-bounds" transform="matrix(1,0,0,1,-0.10877926091313839,-0.09999999999999432)"><svg viewBox="0 0 256.21755710569016 247.2" height="247.2" width="256.21755710569016"><g><svg viewBox="0 0 395.52 381.59970419071885" height="247.2" width="256.21755710569016"><g transform="matrix(1,0,0,1,0,235.84392621073704)"><svg viewBox="0 0 395.52 145.7557779799818" height="145.7557779799818" width="395.52"><g><svg viewBox="0 0 395.52 145.7557779799818" height="145.7557779799818" width="395.52"><g><svg viewBox="0 0 395.52 145.7557779799818" height="145.7557779799818" width="395.52"><g transform="matrix(1,0,0,1,0,0)"><svg width="395.52" viewBox="0.10000000149011612 -39.75 109.88999938964844 40.5" height="145.7557779799818" data-palette-color="#4d7e3e"><path d="M16.7-26.45L22.95-26.45 15.3 0 7.9 0 0.1-26.45 6.65-26.45 11.65-5 16.7-26.45ZM44.45-6.65Q44.45-5.25 44.85-4.58 45.25-3.9 46.15-3.5L46.15-3.5 44.85 0.65Q42.7 0.4 41.37-0.45 40.05-1.3 39.4-3.1L39.4-3.1Q36.95 0.75 32.3 0.75L32.3 0.75Q28.75 0.75 26.65-1.5 24.55-3.75 24.55-7.4L24.55-7.4Q24.55-11.7 27.4-13.98 30.25-16.25 35.65-16.25L35.65-16.25 38.3-16.25 38.3-17.9Q38.3-20.4 37.3-21.45 36.3-22.5 34.05-22.5L34.05-22.5Q31.45-22.5 27.65-21.15L27.65-21.15 26.2-25.3Q30.75-27.2 35.05-27.2L35.05-27.2Q44.45-27.2 44.45-18.25L44.45-18.25 44.45-6.65ZM34-3.8Q36.75-3.8 38.3-7.05L38.3-7.05 38.3-12.55 36.3-12.55Q30.8-12.55 30.8-7.85L30.8-7.85Q30.8-5.85 31.65-4.83 32.5-3.8 34-3.8L34-3.8ZM51.09-26.45L57.34-26.45 57.34 0 51.09 0 51.09-26.45ZM54.25-39.75Q55.95-39.75 57.02-38.68 58.09-37.6 58.09-35.95L58.09-35.95Q58.09-34.3 57.02-33.23 55.95-32.15 54.25-32.15L54.25-32.15Q52.55-32.15 51.47-33.23 50.4-34.3 50.4-35.95L50.4-35.95Q50.4-37.6 51.47-38.68 52.55-39.75 54.25-39.75L54.25-39.75ZM77.09-27.2Q80.24-27.2 82.04-25.1 83.84-23 83.84-19.4L83.84-19.4 83.84 0 77.59 0 77.59-18.55Q77.59-20.65 76.92-21.53 76.24-22.4 74.94-22.4L74.94-22.4Q73.59-22.4 72.44-21.4 71.29-20.4 70.19-18.45L70.19-18.45 70.19 0 63.94 0 63.94-26.45 69.39-26.45 69.84-23Q71.29-25.05 73.07-26.13 74.84-27.2 77.09-27.2L77.09-27.2ZM108.29-6.65Q108.29-5.25 108.69-4.58 109.09-3.9 109.99-3.5L109.99-3.5 108.69 0.65Q106.54 0.4 105.22-0.45 103.89-1.3 103.24-3.1L103.24-3.1Q100.79 0.75 96.14 0.75L96.14 0.75Q92.59 0.75 90.49-1.5 88.39-3.75 88.39-7.4L88.39-7.4Q88.39-11.7 91.24-13.98 94.09-16.25 99.49-16.25L99.49-16.25 102.14-16.25 102.14-17.9Q102.14-20.4 101.14-21.45 100.14-22.5 97.89-22.5L97.89-22.5Q95.29-22.5 91.49-21.15L91.49-21.15 90.04-25.3Q94.59-27.2 98.89-27.2L98.89-27.2Q108.29-27.2 108.29-18.25L108.29-18.25 108.29-6.65ZM97.84-3.8Q100.59-3.8 102.14-7.05L102.14-7.05 102.14-12.55 100.14-12.55Q94.64-12.55 94.64-7.85L94.64-7.85Q94.64-5.85 95.49-4.83 96.34-3.8 97.84-3.8L97.84-3.8Z" opacity="1" transform="matrix(1,0,0,1,0,0)" fill="#4d7e3e" class="undefined-text-0" data-fill-palette-color="primary" id="text-0"></path></svg></g></svg></g></svg></g></svg></g><g transform="matrix(1,0,0,1,97.07575499621873,0)"><svg viewBox="0 0 201.3684900075625 201.43448516833485" height="201.43448516833485" width="201.3684900075625"><g><svg xmlns="http://www.w3.org/2000/svg" xmlns:xlink="http://www.w3.org/1999/xlink" version="1.1" x="0" y="0" viewBox="0.4875004291534424 0.47209224104881287 47.01250076293945 47.02790832519531" enable-background="new 0 0 48 48" xml:space="preserve" height="201.43448516833485" width="201.3684900075625" class="icon-icon-0" data-fill-palette-color="accent" id="icon-0"><g fill="#4d7e3e" data-fill-palette-color="accent"><path fill="#4d7e3e" d="M11 42.8L11 42.8c-2.5 0-5.3-0.3-8.4-1-0.4-0.1-1.3-0.3-1.8-1.1-0.5-0.8-0.4-1.8 0.3-2.7 1.2-1.7 2.8-3 4.4-4.2l9.8-7.7c1.8-1.4 3.7-2.9 5.3-4.6 0.9-0.9 1.7-1.9 2.4-2.9 0.7-0.9 1.4-1.8 2.2-2.6 0.9-1 1.9-1.9 2.8-2.8 0.7-0.7 1.4-1.3 2-2 2.4-2.4 4.5-5.3 6.5-8l1-1.4c0.3-0.4 0.8-1.1 1.8-1.3 1-0.2 2.3 0.7 2.3 1.9 0 0.5-0.2 0.9-0.4 1.1l-0.1 0.1c-0.4 0.8 0 2.1 0.5 3.5 0.2 0.5 0.4 1.1 0.5 1.6 0.6 2.3 0.3 4.4 0 6.1-2.3 12.3-11 19.8-17.9 24-2.9 1.8-5.3 2.8-7.6 3.4C14.8 42.6 13 42.8 11 42.8zM39.5 2.5c0 0-0.2 0.2-0.4 0.5l-1 1.4c-2.1 2.8-4.2 5.7-6.7 8.2-0.7 0.7-1.4 1.4-2.1 2-0.9 0.9-1.8 1.8-2.7 2.7-0.7 0.8-1.4 1.7-2.1 2.5-0.8 1-1.6 2-2.5 3-1.7 1.8-3.6 3.3-5.5 4.8l-9.8 7.7c-1.4 1.1-2.9 2.3-4 3.8-0.2 0.3-0.2 0.5-0.2 0.5 0 0 0.2 0.1 0.6 0.2 3 0.7 5.6 1 8 1h0c1.8 0 3.5-0.2 5-0.6 2.2-0.5 4.4-1.5 7.1-3.2 6.6-4 14.8-11.1 17-22.7 0.3-1.4 0.5-3.3 0-5.2-0.1-0.5-0.3-1-0.4-1.4-0.6-1.7-1.2-3.6-0.3-5.1L39.5 2.5C39.5 2.5 39.5 2.5 39.5 2.5 39.5 2.5 39.5 2.5 39.5 2.5z" data-fill-palette-color="accent"></path><path fill="#4d7e3e" d="M18.7 37.3c-1.8 0-3.3-1.2-3.8-2.9-0.6-2.1 0.6-4.3 2.7-4.9 0.3-0.1 0.7-0.1 1.1-0.1 1.8 0 3.3 1.2 3.8 2.9 0.6 2.1-0.6 4.3-2.8 4.9C19.4 37.3 19 37.3 18.7 37.3zM18.7 31.4c-0.2 0-0.4 0-0.5 0.1-1 0.3-1.7 1.4-1.4 2.4 0.3 1 1.4 1.6 2.4 1.4 1-0.3 1.7-1.4 1.4-2.4C20.3 32 19.6 31.4 18.7 31.4z" data-fill-palette-color="accent"></path><path fill="#4d7e3e" d="M30.9 47.5c-2.2 0-4-1.8-4-4s1.8-4 4-4c2.2 0 4 1.8 4 4S33.1 47.5 30.9 47.5zM30.9 41.6c-1.1 0-2 0.9-2 2s0.9 2 2 2c1.1 0 2-0.9 2-2S32 41.6 30.9 41.6z" data-fill-palette-color="accent"></path><path fill="#4d7e3e" d="M26.7 30.5c-1.8 0-3.3-1.2-3.8-2.9-0.6-2.1 0.6-4.3 2.8-4.9 0.3-0.1 0.7-0.1 1.1-0.1 1.8 0 3.3 1.2 3.8 2.9 0.6 2.1-0.6 4.3-2.8 4.9C27.4 30.5 27 30.5 26.7 30.5zM26.7 24.6c-0.2 0-0.4 0-0.5 0.1-1 0.3-1.7 1.4-1.4 2.4 0.3 1 1.4 1.7 2.4 1.4 1-0.3 1.7-1.4 1.4-2.4C28.3 25.2 27.5 24.6 26.7 24.6z" data-fill-palette-color="accent"></path><path fill="#4d7e3e" d="M32.9 22c-1.8 0-3.3-1.2-3.8-2.9-0.6-2.1 0.6-4.3 2.7-4.9 0.3-0.1 0.7-0.1 1.1-0.1 1.8 0 3.3 1.2 3.8 2.9 0.6 2.1-0.6 4.3-2.7 4.9C33.7 22 33.3 22 32.9 22zM32.9 16.1c-0.2 0-0.4 0-0.5 0.1-1 0.3-1.7 1.4-1.4 2.4 0.3 1 1.4 1.6 2.4 1.4 1-0.3 1.7-1.4 1.4-2.4C34.6 16.7 33.8 16.1 32.9 16.1z" data-fill-palette-color="accent"></path><path fill="#4d7e3e" d="M43.5 40.3c-2.2 0-4-1.8-4-4 0-2.2 1.8-4 4-4 2.2 0 4 1.8 4 4C47.5 38.5 45.7 40.3 43.5 40.3zM43.5 34.3c-1.1 0-2 0.9-2 2 0 1.1 0.9 2 2 2 1.1 0 2-0.9 2-2C45.5 35.2 44.6 34.3 43.5 34.3z" data-fill-palette-color="accent"></path></g></svg></g></svg></g><g></g></svg></g><defs></defs></svg><rect width="256.21755710569016" height="247.2" fill="none" stroke="none" visibility="hidden"></rect></g></svg></g></svg>